<?xml version="1.0" encoding="UTF-8" standalone="no"?>
<svg
   id="Layer_1"
   data-name="Layer 1"
   viewBox="364.19504 32.744005 375.00001 375.00002"
   width="375"
   height="375"
   version="1.1"
   sodipodi:docname="icon2.svg"
   inkscape:version="1.4.2 (f4327f4, 2025-05-13)"
   xmlns:inkscape="http://www.inkscape.org/namespaces/inkscape"
   xmlns:sodipodi="http://sodipodi.sourceforge.net/DTD/sodipodi-0.dtd"
   xmlns="http://www.w3.org/2000/svg"
   xmlns:svg="http://www.w3.org/2000/svg"
   xmlns:rdf="http://www.w3.org/1999/02/22-rdf-syntax-ns#"
   xmlns:cc="http://creativecommons.org/ns#"
   xmlns:dc="http://purl.org/dc/elements/1.1/">
  <defs
     id="defs3" />
  <sodipodi:namedview
     id="namedview3"
     pagecolor="#ffffff"
     bordercolor="#000000"
     borderopacity="0.25"
     inkscape:showpageshadow="2"
     inkscape:pageopacity="0.0"
     inkscape:pagecheckerboard="0"
     inkscape:deskcolor="#d1d1d1"
     inkscape:zoom="1.0858077"
     inkscape:cx="105.45145"
     inkscape:cy="203.07463"
     inkscape:window-width="1920"
     inkscape:window-height="1017"
     inkscape:window-x="-8"
     inkscape:window-y="-8"
     inkscape:window-maximized="1"
     inkscape:current-layer="Layer_1" />
  <title
     id="title1">batman-and-robin-mask-001</title>
  <g
     id="g3"
     transform="translate(2.7629202,-3.6838936)">
    <path
       d="m 756.84582,336.21432 c -13.90739,-24.20891 -26.26932,-35.54077 -24.72415,-41.72174 1.54517,-6.18097 -5.15076,-38.63133 -19.57311,-45.32748 0,0 5.66586,20.08836 -0.51511,27.81464 0,0 -33.4805,-60.78 -126.19557,-51.50844 -92.71523,9.27145 -80.86825,-10.81676 -80.86825,-16.99773 0,0 -10.81677,26.26918 13.39214,37.08595 0,0 -31.42008,19.57325 -36.05588,31.93526 0,0 -21.11835,-10.81677 -18.02787,-25.75415 0,0 -20.60339,28.8447 0.51511,53.56871 0,0 -48.933,26.78429 -48.933,-24.209 0,0 -32.45029,59.74976 5.66593,86.53411 0,0 -5.15083,20.6034 6.181,33.48043 11.3318,12.87719 2.57538,18.54305 9.27145,30.90513 6.69607,12.36193 17.51284,13.90724 22.66374,33.99546 a 166.99869,166.99869 0 0 0 14.93746,37.08608 c 0,0 -6.181,-37.08608 7.72613,-51.50844 13.90739,-14.42235 20.08836,-14.93745 20.08836,-14.93745 0,0 9.78655,9.7867 22.14863,6.18111 L 536.905,439.2312 c 0,0 21.11828,31.42008 53.05361,26.78429 31.93533,-4.63579 27.81449,-32.9654 17.51283,-62.84017 0,0 23.6938,-5.666 38.63126,8.75635 14.93746,14.42235 36.571,-9.27145 36.571,-9.27145 0,0 8.24138,19.05807 28.32959,25.23911 20.08821,6.18104 18.543,75.80318 18.543,75.80318 0,0 3.26228,-53.65454 21.29022,-62.411 18.02794,-8.75646 19.91641,-80.86821 6.00931,-105.07719 z M 564.82773,442.65986 c -19.88663,5.59309 -29.75887,-9.15658 -29.75887,-9.15658 15.10838,-5.49391 33.42153,-25.18058 33.42153,-25.18058 0,0 10.98783,30.21668 -3.66266,34.33716 z"
       transform="translate(-36.77077,-163.65215)"
       id="path1" />
  </g>
  <path
     style="fill:#000000;fill-opacity:1;stroke-width:0.460487"
     d="m 509.01811,391.97067 c -5.33104,-1.60778 -9.07129,-3.43575 -28.68771,-14.02051 -11.07056,-5.97355 -18.83319,-10.44635 -19.7895,-11.40265 -1.6377,-1.6377 -14.23559,-24.12003 -15.40637,-27.49437 -1.06242,-3.06203 -0.56493,-6.79303 1.54909,-11.61769 6.47438,-14.77593 18.79317,-23.78399 37.13837,-27.15721 5.48145,-1.00791 6.14267,-0.79737 3.27501,1.0428 -1.27551,0.8185 -3.83963,3.05629 -5.69805,4.97288 -2.85495,2.94433 -3.27839,3.57759 -2.73058,4.08367 0.36048,0.33303 5.65743,1.36894 11.93027,2.33317 10.044,1.54392 11.86299,1.96084 16.57752,3.7997 12.79242,4.98956 27.11845,12.70499 41.12119,22.14622 10.79777,7.2803 12.3623,8.16964 16.02365,9.10839 3.89137,0.99773 9.75701,0.67197 13.50312,-0.74992 1.49939,-0.56912 4.60768,-2.34466 6.9073,-3.94565 16.24098,-11.30691 32.80764,-20.55497 47.00639,-26.24052 5.0801,-2.0342 6.49152,-2.3655 17.49707,-4.10715 9.59469,-1.51838 11.99924,-2.03999 12.11239,-2.62751 0.18138,-0.94187 -5.3796,-6.5936 -8.66417,-8.80557 -2.89226,-1.94774 -2.6112,-2.02688 3.43997,-0.96843 12.85456,2.24844 23.89212,8.22604 30.61083,16.57789 3.28854,4.0879 7.76461,12.84523 8.25359,16.14796 0.64858,4.38079 0.0532,5.9756 -7.16648,19.19567 -4.52303,8.2822 -7.42989,13.08577 -8.65307,14.29909 -1.26227,1.25211 -7.20387,4.72465 -18.87995,11.03429 -9.37091,5.06397 -18.59215,10.00349 -20.49166,10.97672 -3.28243,1.68181 -8.49825,3.55746 -11.94378,4.2951 l -1.58283,0.33887 2.61685,-2.93357 c 1.43928,-1.61347 2.61779,-3.10381 2.61893,-3.31189 0.004,-0.67167 -35.58,-17.63698 -45.81636,-21.84395 -4.44968,-1.82876 -5.72299,-2.14083 -10.47607,-2.56761 -3.79105,-0.3404 -7.0433,-0.34074 -10.86458,-10e-4 -5.03296,0.4473 -5.89474,0.67301 -11.1668,2.92469 -4.91002,2.09704 -17.25005,7.86405 -39.21335,18.32605 -2.9759,1.41753 -5.41072,2.80968 -5.41072,3.09365 0,0.28397 0.53867,1.01868 1.19704,1.63268 2.02127,1.88505 3.99383,4.57247 3.3314,4.53872 -0.33787,-0.0172 -2.16845,-0.50001 -4.06795,-1.07288 z m 9.50021,-34.36102 c 7.50622,-0.9638 13.04982,-2.15141 16.1153,-3.45243 l 1.78345,-0.75691 -3.76697,-1.27503 c -4.21132,-1.42541 -9.15695,-4.12761 -19.02318,-10.39388 -12.58069,-7.99029 -18.13917,-10.78222 -23.89566,-12.0024 -3.96411,-0.84026 -6.03992,-0.84914 -6.03992,-0.0258 0,0.63281 4.57488,15.58831 5.43996,17.7835 0.81362,2.0646 2.98394,3.59514 9.531,6.72142 10.38881,4.96075 9.2423,4.76434 19.85602,3.40156 z m 123.63596,-2.94323 c 5.39409,-2.50992 7.9438,-3.95965 8.95131,-5.0896 1.10618,-1.24061 2.02112,-3.54762 4.2595,-10.74033 1.56789,-5.03819 2.85071,-9.29736 2.85071,-9.46482 0,-0.59549 -3.59121,-0.29076 -7.17901,0.60917 -5.04147,1.26456 -12.11859,4.88783 -23.24942,11.90298 -10.33111,6.51113 -14.71307,8.87929 -19.30414,10.43261 l -2.99316,1.01269 1.48517,0.7686 c 2.16982,1.1229 8.249,2.46838 15.81642,3.50058 9.72302,1.32621 10.44711,1.21657 19.36262,-2.93188 z"
     id="path10" />
  <path
     style="fill:#ffffff;fill-opacity:1;stroke-width:0.920973"
     d="m 500.07285,354.06905 c -3.78018,-1.75891 -7.60616,-3.86146 -8.50216,-4.67233 -0.896,-0.81087 -2.68731,-4.94366 -3.98069,-9.18398 -1.29337,-4.24032 -2.58861,-8.32732 -2.87829,-9.08223 -1.5718,-4.09603 12.05229,1.1883 27.29956,10.58859 6.83823,4.21593 14.48142,8.61701 16.98487,9.78019 4.38097,2.03552 4.46674,2.14719 2.2861,2.97626 -3.35506,1.2756 -14.83738,2.92029 -19.90787,2.85155 -3.02545,-0.041 -6.60595,-1.07321 -11.30152,-3.25805 z"
     id="path17" />
  <path
     style="fill:#ffffff;fill-opacity:1;stroke-width:0.920973"
     d="m 618.84419,356.34299 c -2.78595,-0.45584 -6.45474,-1.28242 -8.15287,-1.83684 l -3.08751,-1.00804 4.92946,-2.03062 c 2.7112,-1.11684 10.05695,-5.26026 16.32388,-9.2076 12.56237,-7.91263 19.43944,-11.26169 24.92712,-12.13919 l 3.62182,-0.57916 -2.54291,8.16672 c -1.3986,4.49169 -3.05142,9.11275 -3.67294,10.26904 -0.68535,1.27505 -4.24207,3.5401 -9.03856,5.75608 -8.50743,3.93045 -12.50181,4.37768 -23.30749,2.60961 z"
     id="path18" />
  <metadata
     id="metadata1">
    <rdf:RDF>
      <cc:Work
         rdf:about="">
        <dc:title>batman-and-robin-mask-001</dc:title>
      </cc:Work>
    </rdf:RDF>
  </metadata>
</svg>
